<svg width="173" height="56" viewBox="0 0 173 56" fill="none" xmlns="http://www.w3.org/2000/svg">
<path d="M89 11.88C89 13.32 88.44 14.42 87.32 15.18C86.2 15.9267 84.5733 16.3 82.44 16.3H80.74V19.82C80.74 20.3267 80.7733 20.74 80.84 21.06C80.9067 21.3667 81.0467 21.6067 81.26 21.78C81.4733 21.9533 81.7667 22.0667 82.14 22.12C82.5133 22.1733 83.0133 22.2 83.64 22.2V23H75.7V22.2C76.14 22.1867 76.5 22.1467 76.78 22.08C77.06 22.0133 77.2733 21.9 77.42 21.74C77.5667 21.58 77.6667 21.3533 77.72 21.06C77.7733 20.7667 77.8 20.3867 77.8 19.92V10.68C77.8 10.2133 77.7733 9.84 77.72 9.56C77.68 9.26667 77.5933 9.04 77.46 8.88C77.3267 8.70667 77.1333 8.59333 76.88 8.54C76.64 8.47333 76.32 8.42667 75.92 8.4V7.6H82.84C84.8667 7.6 86.4 7.96 87.44 8.68C88.48 9.4 89 10.4667 89 11.88ZM80.74 15.1H82.04C83.3333 15.1 84.28 14.84 84.88 14.32C85.48 13.8 85.78 12.98 85.78 11.86C85.78 10.86 85.5267 10.0867 85.02 9.54C84.5133 8.99333 83.72 8.72 82.64 8.72H81.1C80.86 8.72 80.74 8.83333 80.74 9.06V15.1ZM96.0206 17.3C94.9006 17.8067 94.054 18.28 93.4806 18.72C92.9206 19.1467 92.6406 19.5933 92.6406 20.06C92.6406 20.4467 92.7473 20.7533 92.9606 20.98C93.174 21.2067 93.4406 21.32 93.7606 21.32C94.0806 21.32 94.3806 21.2667 94.6606 21.16C94.9406 21.04 95.1806 20.8867 95.3806 20.7C95.5806 20.5133 95.734 20.2933 95.8406 20.04C95.9606 19.7733 96.0206 19.4933 96.0206 19.2V17.3ZM96.0206 16.24V15.4C96.0206 14.6267 95.8806 14.0667 95.6006 13.72C95.334 13.36 94.914 13.18 94.3406 13.18C93.954 13.18 93.6606 13.2867 93.4606 13.5C93.2606 13.7 93.074 14.04 92.9006 14.52C92.7806 14.8533 92.6073 15.1133 92.3806 15.3C92.1673 15.4867 91.8673 15.58 91.4806 15.58C91.1073 15.58 90.8206 15.4667 90.6206 15.24C90.4206 15.0133 90.3206 14.6933 90.3206 14.28C90.3206 13.64 90.6673 13.1333 91.3606 12.76C92.0673 12.3867 93.1273 12.2 94.5406 12.2C96.034 12.2 97.1006 12.4733 97.7406 13.02C98.3806 13.5533 98.7006 14.4533 98.7006 15.72V20.1C98.7006 21.2333 98.9273 21.8 99.3806 21.8C99.634 21.8 99.8673 21.7133 100.081 21.54L100.381 22.12C100.194 22.4533 99.9006 22.72 99.5006 22.92C99.114 23.1067 98.674 23.2 98.1806 23.2C97.5673 23.2 97.1006 23.0133 96.7806 22.64C96.4606 22.2667 96.3006 21.74 96.3006 21.06H96.2006C95.814 21.7533 95.314 22.28 94.7006 22.64C94.0873 23 93.3873 23.18 92.6006 23.18C91.7606 23.18 91.0873 22.9467 90.5806 22.48C90.074 22 89.8206 21.38 89.8206 20.62C89.8206 20.0333 90.0806 19.4867 90.6006 18.98C91.1206 18.46 91.9873 17.9533 93.2006 17.46L96.0206 16.24ZM109.925 15.68C109.925 15.1467 109.912 14.7267 109.885 14.42C109.858 14.1 109.785 13.86 109.665 13.7C109.545 13.5267 109.365 13.4133 109.125 13.36C108.898 13.2933 108.585 13.24 108.185 13.2V12.4H112.705V18.46C112.705 19.2733 112.712 19.9133 112.725 20.38C112.752 20.8333 112.792 21.1733 112.845 21.4C112.885 21.5733 112.932 21.7133 112.985 21.82C113.038 21.9133 113.125 21.9933 113.245 22.06C113.365 22.1133 113.525 22.1533 113.725 22.18C113.938 22.1933 114.212 22.2 114.545 22.2V22.98L110.565 23.22L110.345 21.44H110.265C109.918 22 109.432 22.4333 108.805 22.74C108.178 23.0467 107.478 23.2 106.705 23.2C105.278 23.2 104.192 22.6933 103.445 21.68C102.872 20.9067 102.585 19.8067 102.585 18.38V15.68C102.585 15.1333 102.572 14.7067 102.545 14.4C102.518 14.08 102.445 13.84 102.325 13.68C102.218 13.52 102.052 13.4133 101.825 13.36C101.598 13.2933 101.285 13.24 100.885 13.2V12.4H105.365V18.06C105.365 19.4067 105.532 20.3867 105.865 21C106.198 21.6 106.732 21.9 107.465 21.9C108.252 21.9 108.858 21.54 109.285 20.82C109.712 20.1267 109.925 19.1067 109.925 17.76V15.68ZM119.745 19.72C119.745 20.2533 119.765 20.68 119.805 21C119.845 21.32 119.925 21.5667 120.045 21.74C120.165 21.9133 120.338 22.0333 120.565 22.1C120.791 22.1533 121.098 22.1867 121.485 22.2V23H115.185V22.2C115.558 22.1867 115.858 22.1467 116.085 22.08C116.325 22 116.505 21.88 116.625 21.72C116.758 21.5467 116.845 21.3133 116.885 21.02C116.938 20.7133 116.965 20.3267 116.965 19.86V11.6C116.965 10.8267 116.951 10.1933 116.925 9.7C116.898 9.19333 116.865 8.84667 116.825 8.66C116.758 8.32667 116.605 8.10667 116.365 8C116.138 7.89333 115.718 7.84 115.105 7.84V7.16L119.745 6.4V19.72ZM127.054 19.72C127.054 20.2533 127.074 20.68 127.114 21C127.154 21.32 127.234 21.5667 127.354 21.74C127.474 21.9133 127.647 22.0333 127.874 22.1C128.101 22.1533 128.407 22.1867 128.794 22.2V23H122.494V22.2C122.867 22.1867 123.167 22.1467 123.394 22.08C123.634 22 123.814 21.88 123.934 21.72C124.067 21.5467 124.154 21.3133 124.194 21.02C124.247 20.7133 124.274 20.3267 124.274 19.86V17.4C124.274 16.6267 124.261 15.9933 124.234 15.5C124.207 14.9933 124.174 14.6467 124.134 14.46C124.067 14.1267 123.914 13.9067 123.674 13.8C123.447 13.6933 123.027 13.64 122.414 13.64V12.96L127.054 12.2V19.72ZM124.114 7.96C124.114 7.52 124.261 7.15333 124.554 6.86C124.861 6.55333 125.227 6.4 125.654 6.4C126.094 6.4 126.461 6.55333 126.754 6.86C127.061 7.15333 127.214 7.52 127.214 7.96C127.214 8.38667 127.061 8.75333 126.754 9.06C126.461 9.35333 126.094 9.5 125.654 9.5C125.227 9.5 124.861 9.35333 124.554 9.06C124.261 8.75333 124.114 8.38667 124.114 7.96ZM139.941 21.14C138.727 22.5133 137.214 23.2 135.401 23.2C134.574 23.2 133.821 23.0733 133.141 22.82C132.474 22.5533 131.901 22.1867 131.421 21.72C130.941 21.24 130.567 20.6733 130.301 20.02C130.034 19.3667 129.901 18.64 129.901 17.84C129.901 17.0133 130.041 16.26 130.321 15.58C130.601 14.8867 130.994 14.2933 131.501 13.8C132.021 13.2933 132.627 12.9 133.321 12.62C134.027 12.34 134.801 12.2 135.641 12.2C137.054 12.2 138.154 12.58 138.941 13.34C139.727 14.1 140.121 15.1667 140.121 16.54C140.121 16.7533 140.087 16.8867 140.021 16.94C139.954 16.98 139.767 17 139.461 17H133.021C132.967 17.12 132.941 17.34 132.941 17.66C132.941 18.9667 133.221 20 133.781 20.76C134.354 21.52 135.127 21.9 136.101 21.9C136.661 21.9 137.214 21.7733 137.761 21.52C138.321 21.2667 138.861 20.9067 139.381 20.44L139.941 21.14ZM136.061 15.88C136.594 15.88 136.934 15.8533 137.081 15.8C137.241 15.7333 137.321 15.5867 137.321 15.36C137.321 14.7733 137.154 14.2933 136.821 13.92C136.487 13.5467 136.067 13.36 135.561 13.36C134.987 13.36 134.474 13.6 134.021 14.08C133.581 14.5467 133.294 15.1467 133.161 15.88H136.061ZM141.705 11.36C142.185 10.9867 142.552 10.6133 142.805 10.24C143.072 9.85333 143.205 9.49333 143.205 9.16C143.152 9.18667 143.079 9.20667 142.985 9.22C142.905 9.22 142.832 9.22 142.765 9.22C142.459 9.22 142.199 9.1 141.985 8.86C141.785 8.60667 141.685 8.3 141.685 7.94C141.685 7.5 141.832 7.13333 142.125 6.84C142.419 6.54667 142.785 6.4 143.225 6.4C143.692 6.4 144.059 6.57333 144.325 6.92C144.592 7.25333 144.725 7.70667 144.725 8.28C144.725 8.96 144.519 9.63333 144.105 10.3C143.692 10.9667 143.085 11.6 142.285 12.2L141.705 11.36ZM146.778 23H146.158V19.36H146.998C147.225 20.32 147.551 21.02 147.978 21.46C148.405 21.9 148.958 22.12 149.638 22.12C150.131 22.12 150.511 22.02 150.778 21.82C151.058 21.6067 151.198 21.32 151.198 20.96C151.198 20.5867 151.031 20.2267 150.698 19.88C150.365 19.52 149.825 19.14 149.078 18.74C148.065 18.1933 147.338 17.6533 146.898 17.12C146.458 16.5733 146.238 15.96 146.238 15.28C146.238 14.84 146.318 14.4333 146.478 14.06C146.651 13.6733 146.878 13.34 147.158 13.06C147.451 12.78 147.798 12.5667 148.198 12.42C148.598 12.26 149.031 12.18 149.498 12.18C149.911 12.18 150.318 12.24 150.718 12.36C151.131 12.48 151.491 12.6467 151.798 12.86L152.158 12.38H152.678V15.4H151.898C151.591 14.64 151.271 14.0933 150.938 13.76C150.618 13.4267 150.225 13.26 149.758 13.26C149.385 13.26 149.085 13.36 148.858 13.56C148.645 13.76 148.538 14.0267 148.538 14.36C148.538 14.7333 148.698 15.0867 149.018 15.42C149.351 15.7533 149.898 16.12 150.658 16.52C151.191 16.8133 151.651 17.1 152.038 17.38C152.425 17.66 152.738 17.9467 152.978 18.24C153.218 18.52 153.391 18.82 153.498 19.14C153.618 19.4467 153.678 19.78 153.678 20.14C153.678 20.6067 153.591 21.0267 153.418 21.4C153.245 21.7733 152.998 22.0933 152.678 22.36C152.358 22.6267 151.971 22.8333 151.518 22.98C151.078 23.1267 150.585 23.2 150.038 23.2C149.465 23.2 148.931 23.1267 148.438 22.98C147.945 22.82 147.538 22.5933 147.218 22.3L146.778 23ZM89 36.88C89 38.32 88.44 39.42 87.32 40.18C86.2 40.9267 84.5733 41.3 82.44 41.3H80.74V44.82C80.74 45.3267 80.7733 45.74 80.84 46.06C80.9067 46.3667 81.0467 46.6067 81.26 46.78C81.4733 46.9533 81.7667 47.0667 82.14 47.12C82.5133 47.1733 83.0133 47.2 83.64 47.2V48H75.7V47.2C76.14 47.1867 76.5 47.1467 76.78 47.08C77.06 47.0133 77.2733 46.9 77.42 46.74C77.5667 46.58 77.6667 46.3533 77.72 46.06C77.7733 45.7667 77.8 45.3867 77.8 44.92V35.68C77.8 35.2133 77.7733 34.84 77.72 34.56C77.68 34.2667 77.5933 34.04 77.46 33.88C77.3267 33.7067 77.1333 33.5933 76.88 33.54C76.64 33.4733 76.32 33.4267 75.92 33.4V32.6H82.84C84.8667 32.6 86.4 32.96 87.44 33.68C88.48 34.4 89 35.4667 89 36.88ZM80.74 40.1H82.04C83.3333 40.1 84.28 39.84 84.88 39.32C85.48 38.8 85.78 37.98 85.78 36.86C85.78 35.86 85.5267 35.0867 85.02 34.54C84.5133 33.9933 83.72 33.72 82.64 33.72H81.1C80.86 33.72 80.74 33.8333 80.74 34.06V40.1ZM94.4759 44.72C94.4759 45.2533 94.4959 45.68 94.5359 46C94.5759 46.32 94.6559 46.5667 94.7759 46.74C94.8959 46.9133 95.0693 47.0333 95.2959 47.1C95.5226 47.1533 95.8293 47.1867 96.2159 47.2V48H89.9159V47.2C90.2893 47.1867 90.5893 47.1467 90.8159 47.08C91.0559 47 91.2359 46.88 91.3559 46.72C91.4893 46.5467 91.5759 46.3133 91.6159 46.02C91.6693 45.7133 91.6959 45.3267 91.6959 44.86V42.4C91.6959 41.6267 91.6826 40.9933 91.6559 40.5C91.6293 39.9933 91.5959 39.6467 91.5559 39.46C91.4893 39.1267 91.3359 38.9067 91.0959 38.8C90.8693 38.6933 90.4493 38.64 89.8359 38.64V37.96L94.4759 37.2V44.72ZM91.5359 32.96C91.5359 32.52 91.6826 32.1533 91.9759 31.86C92.2826 31.5533 92.6493 31.4 93.0759 31.4C93.5159 31.4 93.8826 31.5533 94.1759 31.86C94.4826 32.1533 94.6359 32.52 94.6359 32.96C94.6359 33.3867 94.4826 33.7533 94.1759 34.06C93.8826 34.3533 93.5159 34.5 93.0759 34.5C92.6493 34.5 92.2826 34.3533 91.9759 34.06C91.6826 33.7533 91.5359 33.3867 91.5359 32.96ZM106.963 48H97.0825V47.54L103.343 38.46H101.503C100.929 38.46 100.463 38.4867 100.103 38.54C99.7425 38.58 99.4492 38.68 99.2225 38.84C99.0092 38.9867 98.8425 39.1933 98.7225 39.46C98.6158 39.7267 98.5225 40.08 98.4425 40.52H97.6625L97.9025 37.4H106.923V37.86L100.763 46.92H102.523C103.216 46.92 103.789 46.8933 104.243 46.84C104.696 46.7733 105.063 46.66 105.343 46.5C105.623 46.3267 105.843 46.0933 106.003 45.8C106.163 45.4933 106.303 45.0933 106.423 44.6H107.203L106.963 48ZM118.33 48H108.45V47.54L114.71 38.46H112.87C112.296 38.46 111.83 38.4867 111.47 38.54C111.11 38.58 110.816 38.68 110.59 38.84C110.376 38.9867 110.21 39.1933 110.09 39.46C109.983 39.7267 109.89 40.08 109.81 40.52H109.03L109.27 37.4H118.29V37.86L112.13 46.92H113.89C114.583 46.92 115.156 46.8933 115.61 46.84C116.063 46.7733 116.43 46.66 116.71 46.5C116.99 46.3267 117.21 46.0933 117.37 45.8C117.53 45.4933 117.67 45.0933 117.79 44.6H118.57L118.33 48ZM126.177 42.3C125.057 42.8067 124.21 43.28 123.637 43.72C123.077 44.1467 122.797 44.5933 122.797 45.06C122.797 45.4467 122.904 45.7533 123.117 45.98C123.33 46.2067 123.597 46.32 123.917 46.32C124.237 46.32 124.537 46.2667 124.817 46.16C125.097 46.04 125.337 45.8867 125.537 45.7C125.737 45.5133 125.89 45.2933 125.997 45.04C126.117 44.7733 126.177 44.4933 126.177 44.2V42.3ZM126.177 41.24V40.4C126.177 39.6267 126.037 39.0667 125.757 38.72C125.49 38.36 125.07 38.18 124.497 38.18C124.11 38.18 123.817 38.2867 123.617 38.5C123.417 38.7 123.23 39.04 123.057 39.52C122.937 39.8533 122.764 40.1133 122.537 40.3C122.324 40.4867 122.024 40.58 121.637 40.58C121.264 40.58 120.977 40.4667 120.777 40.24C120.577 40.0133 120.477 39.6933 120.477 39.28C120.477 38.64 120.824 38.1333 121.517 37.76C122.224 37.3867 123.284 37.2 124.697 37.2C126.19 37.2 127.257 37.4733 127.897 38.02C128.537 38.5533 128.857 39.4533 128.857 40.72V45.1C128.857 46.2333 129.084 46.8 129.537 46.8C129.79 46.8 130.024 46.7133 130.237 46.54L130.537 47.12C130.35 47.4533 130.057 47.72 129.657 47.92C129.27 48.1067 128.83 48.2 128.337 48.2C127.724 48.2 127.257 48.0133 126.937 47.64C126.617 47.2667 126.457 46.74 126.457 46.06H126.357C125.97 46.7533 125.47 47.28 124.857 47.64C124.244 48 123.544 48.18 122.757 48.18C121.917 48.18 121.244 47.9467 120.737 47.48C120.23 47 119.977 46.38 119.977 45.62C119.977 45.0333 120.237 44.4867 120.757 43.98C121.277 43.46 122.144 42.9533 123.357 42.46L126.177 41.24Z" fill="#C40815"/>
<path d="M8.66529 14.1677L25.7582 53L44.9877 14.1677M3.85791 17.3594C2.61156 17.0048 0.332503 15.6572 1.18715 13.1038C8.84334 5.47925 29.9246 -5.19519 53 13.1038C52.5727 15.6572 50.3292 17.0048 49.2609 17.3594C44.9601 13.6536 40.6393 11.2837 36.4431 9.91533C22.3469 5.31851 9.65756 12.0243 3.85791 17.3594Z" stroke="#C40815" stroke-width="2"/>
<path d="M21.8661 18.4265C21.8661 20.7925 19.9396 22.7141 17.5587 22.7141C15.1779 22.7141 13.2514 20.7925 13.2514 18.4265C13.2514 16.0605 15.1779 14.139 17.5587 14.139C19.9396 14.139 21.8661 16.0605 21.8661 18.4265Z" fill="#C40815" stroke="#C40815"/>
<path d="M17.5929 14.7029C17.5929 15.0124 17.3404 15.2668 17.0246 15.2668C16.7088 15.2668 16.4563 15.0124 16.4563 14.7029C16.4563 14.3934 16.7088 14.139 17.0246 14.139C17.3404 14.139 17.5929 14.3934 17.5929 14.7029Z" fill="#C40815" stroke="#C40815"/>
<path d="M20.7978 21.0863C20.7978 21.3957 20.5453 21.6502 20.2295 21.6502C19.9137 21.6502 19.6612 21.3957 19.6612 21.0863C19.6612 20.7768 19.9137 20.5224 20.2295 20.5224C20.5453 20.5224 20.7978 20.7768 20.7978 21.0863Z" fill="#C40815" stroke="#C40815"/>
<path d="M37.8907 23.746C37.8907 26.112 35.9642 28.0335 33.5833 28.0335C31.2025 28.0335 29.276 26.112 29.276 23.746C29.276 21.38 31.2025 19.4585 33.5833 19.4585C35.9642 19.4585 37.8907 21.38 37.8907 23.746Z" fill="#C40815" stroke="#C40815"/>
<path d="M33.6175 20.0224C33.6175 20.3318 33.365 20.5863 33.0492 20.5863C32.7334 20.5863 32.4809 20.3318 32.4809 20.0224C32.4809 19.7129 32.7334 19.4585 33.0492 19.4585C33.365 19.4585 33.6175 19.7129 33.6175 20.0224Z" fill="#C40815" stroke="#C40815"/>
<path d="M36.8224 26.4057C36.8224 26.7152 36.5699 26.9696 36.2541 26.9696C35.9383 26.9696 35.6858 26.7152 35.6858 26.4057C35.6858 26.0963 35.9383 25.8418 36.2541 25.8418C36.5699 25.8418 36.8224 26.0963 36.8224 26.4057Z" fill="#C40815" stroke="#C40815"/>
<path d="M26.1393 31.1933C26.1393 33.5593 24.2128 35.4808 21.832 35.4808C19.4511 35.4808 17.5246 33.5593 17.5246 31.1933C17.5246 28.8273 19.4511 26.9057 21.832 26.9057C24.2128 26.9057 26.1393 28.8273 26.1393 31.1933Z" fill="#C40815" stroke="#C40815"/>
<path d="M21.8661 27.4696C21.8661 27.7791 21.6136 28.0335 21.2978 28.0335C20.982 28.0335 20.7295 27.7791 20.7295 27.4696C20.7295 27.1602 20.982 26.9057 21.2978 26.9057C21.6136 26.9057 21.8661 27.1602 21.8661 27.4696Z" fill="#C40815" stroke="#C40815"/>
<path d="M25.071 33.853C25.071 34.1625 24.8186 34.4169 24.5027 34.4169C24.1869 34.4169 23.9344 34.1625 23.9344 33.853C23.9344 33.5435 24.1869 33.2891 24.5027 33.2891C24.8186 33.2891 25.071 33.5435 25.071 33.853Z" fill="#C40815" stroke="#C40815"/>
<path d="M29.3443 21.6182C29.3443 23.9842 27.4177 25.9057 25.0369 25.9057C22.656 25.9057 20.7295 23.9842 20.7295 21.6182C20.7295 19.2522 22.656 17.3307 25.0369 17.3307C27.4177 17.3307 29.3443 19.2522 29.3443 21.6182Z" fill="#C40815" stroke="#C40815"/>
<path d="M25.071 17.8946C25.071 18.204 24.8186 18.4585 24.5027 18.4585C24.1869 18.4585 23.9344 18.204 23.9344 17.8946C23.9344 17.5851 24.1869 17.3307 24.5027 17.3307C24.8186 17.3307 25.071 17.5851 25.071 17.8946Z" fill="#C40815" stroke="#C40815"/>
<path d="M28.276 24.2779C28.276 24.5874 28.0235 24.8418 27.7077 24.8418C27.3918 24.8418 27.1394 24.5874 27.1394 24.2779C27.1394 23.9685 27.3918 23.7141 27.7077 23.7141C28.0235 23.7141 28.276 23.9685 28.276 24.2779Z" fill="#C40815" stroke="#C40815"/>
<path d="M30.4126 38.6406C30.4126 41.0066 28.486 42.9281 26.1052 42.9281C23.7243 42.9281 21.7978 41.0066 21.7978 38.6406C21.7978 36.2746 23.7243 34.353 26.1052 34.353C28.486 34.353 30.4126 36.2746 30.4126 38.6406Z" fill="#C40815" stroke="#C40815"/>
<path d="M26.1394 34.9169C26.1394 35.2264 25.8869 35.4808 25.571 35.4808C25.2552 35.4808 25.0027 35.2264 25.0027 34.9169C25.0027 34.6074 25.2552 34.353 25.571 34.353C25.8869 34.353 26.1394 34.6074 26.1394 34.9169Z" fill="#C40815" stroke="#C40815"/>
<path d="M29.3443 41.3003C29.3443 41.6098 29.0918 41.8642 28.776 41.8642C28.4601 41.8642 28.2077 41.6098 28.2077 41.3003C28.2077 40.9908 28.4601 40.7364 28.776 40.7364C29.0918 40.7364 29.3443 40.9908 29.3443 41.3003Z" fill="#C40815" stroke="#C40815"/>
<path d="M34.6858 14.1709C34.6858 16.5369 32.7593 18.4585 30.3784 18.4585C27.9976 18.4585 26.071 16.5369 26.071 14.1709C26.071 11.8049 27.9976 9.88338 30.3784 9.88338C32.7593 9.88338 34.6858 11.8049 34.6858 14.1709Z" fill="#C40815" stroke="#C40815"/>
<path d="M30.4126 10.4473C30.4126 10.7568 30.1601 11.0112 29.8443 11.0112C29.5285 11.0112 29.276 10.7568 29.276 10.4473C29.276 10.1378 29.5285 9.88338 29.8443 9.88338C30.1601 9.88338 30.4126 10.1378 30.4126 10.4473Z" fill="#C40815" stroke="#C40815"/>
<path d="M33.6175 16.8307C33.6175 17.1402 33.365 17.3946 33.0492 17.3946C32.7334 17.3946 32.4809 17.1402 32.4809 16.8307C32.4809 16.5212 32.7334 16.2668 33.0492 16.2668C33.365 16.2668 33.6175 16.5212 33.6175 16.8307Z" fill="#C40815" stroke="#C40815"/>
<path d="M14.388 18.9585C14.388 19.2679 14.1355 19.5224 13.8197 19.5224C13.5039 19.5224 13.2514 19.2679 13.2514 18.9585C13.2514 18.649 13.5039 18.3946 13.8197 18.3946C14.1355 18.3946 14.388 18.649 14.388 18.9585Z" fill="white" stroke="#C40815"/>
<path d="M1 27.6313L8.19109 23.8304" stroke="#C40815" stroke-linecap="round"/>
<path d="M5.27323 35.2443L11.8145 30.4649" stroke="#C40815" stroke-linecap="round"/>
<path d="M10.6148 41.3003L14.888 37.0447" stroke="#C40815" stroke-linecap="round"/>
<path d="M52.2787 28.6952L45.0876 24.8943" stroke="#C40815" stroke-linecap="round"/>
<path d="M48.0055 36.3082L41.4641 31.5288" stroke="#C40815" stroke-linecap="round"/>
<path d="M42.6639 42.3642L38.3907 38.1086" stroke="#C40815" stroke-linecap="round"/>
<path d="M37.3224 45.5559L34.1175 42.3642" stroke="#C40815" stroke-linecap="round"/>
<path d="M14.888 45.5559L18.0929 42.3642" stroke="#C40815" stroke-linecap="round"/>
<path d="M65 0V55" stroke="#C40815" stroke-width="3"/>
</svg>
